<svg width="12" height="14" viewBox="0 0 12 14" fill="none" xmlns="http://www.w3.org/2000/svg">
    <path fill-rule="evenodd" clip-rule="evenodd" d="M1.44981 3.49961V12.5996H8.44981V5.71456L6.23486 3.49961H1.44981ZM0.408599 2.4584C0.638331 2.22867 0.949915 2.09961 1.2748 2.09961H6.52481C6.71046 2.09961 6.8885 2.17336 7.01978 2.30463L9.64478 4.92963C9.77606 5.06091 9.8498 5.23896 9.8498 5.42461V12.7746C9.8498 13.0995 9.72075 13.4111 9.49101 13.6408C9.26128 13.8705 8.94969 13.9996 8.62481 13.9996H1.2748C0.949916 13.9996 0.638332 13.8705 0.408599 13.6408C0.178866 13.4111 0.0498047 13.0995 0.0498047 12.7746V3.32461C0.0498047 2.99972 0.178867 2.68814 0.408599 2.4584Z" fill="#0083FC"/>
    <path fill-rule="evenodd" clip-rule="evenodd" d="M3.54941 1.4V2.8C3.54941 3.1866 3.23601 3.5 2.84941 3.5C2.46281 3.5 2.14941 3.1866 2.14941 2.8V1.225C2.14941 0.90011 2.27848 0.588526 2.50821 0.358794C2.73794 0.129062 3.04952 0 3.37441 0H8.62441C8.81007 0 8.98811 0.0737498 9.11939 0.205025L11.7444 2.83003C11.8757 2.9613 11.9494 3.13935 11.9494 3.325V10.675C11.9494 10.9999 11.8204 11.3115 11.5906 11.5412C11.3609 11.7709 11.0493 11.9 10.7244 11.9H9.14942C8.76282 11.9 8.44941 11.5866 8.44941 11.2C8.44941 10.8134 8.76282 10.5 9.14942 10.5H10.5494V3.61495L8.33447 1.4H3.54941ZM2.67441 8.575C2.67441 8.1884 2.98781 7.875 3.37441 7.875H6.52442C6.91101 7.875 7.22441 8.1884 7.22441 8.575C7.22441 8.9616 6.91101 9.275 6.52442 9.275H3.37441C2.98781 9.275 2.67441 8.9616 2.67441 8.575ZM2.67441 10.675C2.67441 10.2884 2.98781 9.975 3.37441 9.975H6.52442C6.91101 9.975 7.22441 10.2884 7.22441 10.675C7.22441 11.0616 6.91101 11.375 6.52442 11.375H3.37441C2.98781 11.375 2.67441 11.0616 2.67441 10.675Z" fill="#0083FC"/>
</svg>
