<svg width="17" height="14" viewBox="0 0 17 14" fill="none" xmlns="http://www.w3.org/2000/svg">
    <path d="M1.47446 1.47446H14.7446V5.16061H16.2191V1.47446C16.2191 0.663507 15.5556 0 14.7446 0H1.47446C0.663507 0 0 0.663507 0 1.47446V10.3212C0 11.1322 0.663507 11.7957 1.47446 11.7957H8.10953V10.3212H1.47446V1.47446Z" fill="#0083FC"/>
    <path d="M10.3208 5.89814L5.89746 2.94922V8.84706L10.3208 5.89814Z" fill="#0083FC"/>
    <path d="M16.0051 10.6379C16.0272 10.4241 16.0345 10.2103 16.0124 10.0039L16.8013 9.37726C16.875 9.31828 16.8897 9.22244 16.8455 9.14135L16.0861 7.82171C16.0419 7.74061 15.9461 7.71112 15.8576 7.74061L14.914 8.10923C14.7444 7.9839 14.5601 7.88068 14.361 7.79959L14.2136 6.79696C14.1988 6.70112 14.1251 6.63477 14.0293 6.63477H12.5032C12.4147 6.63477 12.3336 6.70112 12.3189 6.78958L12.1715 7.79222C11.9798 7.87331 11.7955 7.9839 11.6259 8.10185L10.6823 7.73324C10.5938 7.69638 10.4979 7.73324 10.4537 7.81433L9.69436 9.13398C9.65013 9.21507 9.66487 9.31091 9.7386 9.36989L10.5274 10.0039C10.5053 10.2177 10.4979 10.4315 10.5201 10.6379L9.73122 11.2646C9.6575 11.3235 9.64276 11.4194 9.68699 11.5005L10.4463 12.8201C10.4906 12.9012 10.5864 12.9307 10.6749 12.9012L11.6112 12.5326C11.7807 12.6579 11.965 12.7611 12.1641 12.8422L12.3115 13.8449C12.3263 13.9333 12.4 13.9997 12.4958 13.9997H14.0219C14.1104 13.9997 14.1915 13.9333 14.2062 13.8449L14.3537 12.8422C14.5453 12.7611 14.7296 12.6506 14.8992 12.5326L15.8429 12.9012C15.9313 12.9381 16.0272 12.9012 16.0714 12.8201L16.8308 11.5005C16.875 11.4194 16.8602 11.3235 16.7865 11.2646L16.0051 10.6379ZM13.2699 11.4268C12.658 11.4268 12.1641 10.9328 12.1641 10.3209C12.1641 9.70902 12.658 9.21507 13.2699 9.21507C13.8818 9.21507 14.3758 9.70902 14.3758 10.3209C14.3758 10.9328 13.8818 11.4268 13.2699 11.4268Z" fill="#0083FC"/>
</svg>
